<?xml version="1.0" encoding="utf-8"?>
<!-- Generator: Adobe Illustrator 19.0.0, SVG Export Plug-In . SVG Version: 6.00 Build 0)  -->
<svg version="1.1" xmlns="http://www.w3.org/2000/svg" xmlns:xlink="http://www.w3.org/1999/xlink" x="0px" y="0px"
	 viewBox="0 0 500 500" style="enable-background:new 0 0 500 500;" xml:space="preserve">
<style type="text/css">
	.st0{clip-path:url(#XMLID_114_);}
	.st1{fill:#F9DC5F;}
	.st2{clip-path:url(#XMLID_114_);fill:#F9DF5D;}
	.st3{clip-path:url(#XMLID_114_);fill:#F89A1C;}
	.st4{fill:#FFFFFF;}
	.st5{fill:#F89A1C;}
	.st6{fill:#FFFFFF;stroke:#F89A1C;stroke-width:7;stroke-miterlimit:10;}
	.st7{fill:#F8BE2E;}
	.st8{fill:#D77A27;}
	.st9{fill:#FFFFFF;stroke:#000000;stroke-width:7;stroke-miterlimit:10;}
	.st10{clip-path:url(#XMLID_114_);fill:none;}
</style>
<g id="Layer_1">
</g>
<g id="Layer_2">
	<g id="XMLID_35_">
		<defs>
			<rect id="XMLID_2_" width="500" height="500"/>
		</defs>
		<clipPath id="XMLID_114_">
			<use xlink:href="#XMLID_2_"  style="overflow:visible;"/>
		</clipPath>
		<g id="XMLID_36_" class="st0">
			<rect id="XMLID_112_" x="-5" y="-2.2" class="st1" width="505" height="505"/>
		</g>
		<polygon id="XMLID_99_" class="st2" points="173.9,432.6 108.6,451.9 92.9,508.1 400.8,508.1 385.1,451.9 319.8,432.6 
			248.4,447.3 		"/>
		<path id="XMLID_100_" class="st3" d="M406.9,512.7H86.8l18-64.5l68.9-20.4l74.7,14.7l71.6-14.7l68.9,20.4L406.9,512.7z
			 M99.1,503.4h295.6l-13.4-47.8l-61.7-18.3L248.4,452l-74.3-14.6l-61.7,18.3L99.1,503.4z"/>
		<g id="XMLID_34_" class="st0">
			<path id="XMLID_94_" class="st4" d="M258,44.4l-16,0c-49.8,0-104.7,9.3-135.6,80.4c-26.7,61.5-32.7,183.5-32.7,214.3
				c0,66.5,82.4,63.8,175.3,63.8l0.7,0c92.9,0,175.3,2.8,175.3-63.8c0-30.9-6.1-152.8-32.7-214.3c-30.8-71.1-85.7-80.4-135.6-80.4"
				/>
			<path id="XMLID_96_" class="st5" d="M271,407.7c-3.5,0-7.1,0-10.7,0l-11.3,0l-10.7,0c-67.8,0.1-126.3,0.1-153.8-27.2
				c-10.3-10.3-15.6-24.2-15.6-41.2c0-29.5,5.6-152.7,33.1-216.2C134,49.7,190.7,39.8,242,39.8l14.8,0v0c51.3,0,108,9.9,139.8,83.2
				c27.5,63.5,33.1,186.7,33.1,216.2c0,17-5.2,30.9-15.6,41.2C388.2,406.4,334.3,407.7,271,407.7z M249,398.3l11.3,0
				c63,0.1,122.5,0.1,147.2-24.5c8.6-8.6,12.8-19.9,12.8-34.6c0-27.3-5.8-151.1-32.4-212.5c-29.3-67.7-79.7-77.5-130-77.6v0l-16,0
				c-50.7,0-101.7,9.4-131.3,77.6c-26.6,61.4-32.4,185.2-32.4,212.5c0,14.7,4.2,26,12.8,34.6c24.7,24.7,84.2,24.6,147.2,24.5
				L249,398.3z"/>
		</g>
		<g id="XMLID_33_" class="st0">
			<polyline id="XMLID_92_" class="st4" points="283,456.3 283,367.3 211.9,364.7 211.9,442.6 			"/>
			<polygon id="XMLID_93_" class="st5" points="287.6,456.3 278.3,456.3 278.3,371.8 216.6,369.5 216.6,442.6 207.3,442.6 
				207.3,359.9 287.6,362.8 			"/>
		</g>
		<g id="XMLID_32_" class="st0">
			<path id="XMLID_111_" class="st6" d="M283,449.2"/>
		</g>
		<g id="XMLID_31_" class="st0">
			<path id="XMLID_110_" class="st6" d="M246.8,489.1"/>
		</g>
		<g id="XMLID_30_" class="st0">
			<path id="XMLID_90_" class="st4" d="M106.4,224.4c0,0-8.5-1.6-11.5-1.7c-10.6-0.1-11.3,17.5-7.5,33.6
				c3.8,16.1,15.3,27.1,25.7,24.6"/>
			<path id="XMLID_91_" class="st5" d="M110.1,285.9c-5.3,0-10.7-2.4-15.5-7c-5.5-5.3-9.6-12.9-11.7-21.5
				c-1.4-5.8-5.3-25.2,2.2-34.6c2.5-3.1,5.9-4.7,9.9-4.7c3.2,0,10.8,1.5,12.3,1.7l-1.7,9.1c-3.4-0.6-8.9-1.6-10.7-1.6
				c-1.1,0-1.8,0.3-2.5,1.2c-3.1,3.8-3.2,14.8-0.4,26.6c1.6,6.9,4.9,12.9,9.1,17c2.1,2,6.4,5.3,11,4.2l2.2,9
				C112.8,285.7,111.5,285.9,110.1,285.9z"/>
		</g>
		<g id="XMLID_29_" class="st0">
			<path id="XMLID_88_" class="st4" d="M360.6,325.6c-24.8,35.4-63.1,58.8-110.3,58.8c-85.1,0-143.9-72.5-143.9-157.7
				c0-60.4,29.6-114.5,77.2-140.8"/>
			<path id="XMLID_89_" class="st5" d="M250.4,389c-41.7,0-79.8-17.2-107.4-48.5c-26.6-30.2-41.2-70.6-41.2-113.8
				c0-62.2,30.5-117.7,79.6-144.8l4.5,8.1c-46.1,25.5-74.8,77.9-74.8,136.7c0,87.2,59.9,153,139.3,153c43,0,80.8-20.2,106.5-56.8
				l7.6,5.3C337,367.5,296.5,389,250.4,389z"/>
		</g>
		<g id="XMLID_28_" class="st0">
			<polyline id="XMLID_85_" class="st4" points="228.7,339.2 248.6,330.4 269.4,339.2 			"/>
			<polygon id="XMLID_87_" class="st5" points="267.6,343.5 248.7,335.4 230.6,343.5 226.8,335 248.6,325.3 271.2,334.9 			"/>
		</g>
		<g id="XMLID_27_" class="st0">
			<path id="XMLID_109_" class="st6" d="M246.8,223.8"/>
		</g>
		<g id="XMLID_26_" class="st0">
			<path id="XMLID_86_" class="st5" d="M365.3,398.5H356V270.6c0-30.6-8.5-63.5-71.4-75.8c-30.3-5.9-57.5-18.6-76.5-35.8
				c-19.7-17.7-28.4-38.1-24.6-57.4l9.1,1.8c-6.6,34,35.4,70.9,93.8,82.3c54.6,10.7,78.9,36.9,78.9,84.9V398.5z"/>
		</g>
		<g id="XMLID_25_" class="st0">
			<circle id="XMLID_81_" class="st4" cx="176.9" cy="221.1" r="49.5"/>
			<path id="XMLID_82_" class="st5" d="M176.9,275.3c-29.9,0-54.2-24.3-54.2-54.2s24.3-54.2,54.2-54.2s54.2,24.3,54.2,54.2
				S206.8,275.3,176.9,275.3z M176.9,176.3c-24.7,0-44.9,20.1-44.9,44.9s20.1,44.9,44.9,44.9s44.9-20.1,44.9-44.9
				S201.7,176.3,176.9,176.3z"/>
		</g>
		<g id="XMLID_24_" class="st0">
			<circle id="XMLID_77_" class="st4" cx="314.5" cy="223.8" r="49.5"/>
			<path id="XMLID_78_" class="st5" d="M314.5,278c-29.9,0-54.2-24.3-54.2-54.2s24.3-54.2,54.2-54.2s54.2,24.3,54.2,54.2
				S344.4,278,314.5,278z M314.5,178.9c-24.7,0-44.9,20.1-44.9,44.9s20.1,44.9,44.9,44.9s44.9-20.1,44.9-44.9
				S339.2,178.9,314.5,178.9z"/>
		</g>
		<g id="XMLID_23_" class="st0">
			<circle id="XMLID_73_" class="st4" cx="176.9" cy="221.1" r="36.9"/>
			<path id="XMLID_74_" class="st5" d="M176.9,262.7c-22.9,0-41.6-18.7-41.6-41.6s18.7-41.6,41.6-41.6s41.6,18.7,41.6,41.6
				S199.9,262.7,176.9,262.7z M176.9,188.8c-17.8,0-32.3,14.5-32.3,32.3s14.5,32.3,32.3,32.3s32.3-14.5,32.3-32.3
				S194.7,188.8,176.9,188.8z"/>
		</g>
		<g id="XMLID_22_" class="st0">
			<path id="XMLID_71_" class="st4" d="M265,297.2c0,4.8-6.8,8.6-15.3,8.6c-8.4,0-15.3-3.9-15.3-8.6"/>
			<path id="XMLID_72_" class="st5" d="M249.7,310.4c-11.4,0-19.9-5.7-19.9-13.3h9.3c0,1,3.7,4,10.6,4c7,0,10.6-3,10.6-4h9.3
				C269.6,304.7,261.1,310.4,249.7,310.4z"/>
		</g>
		<g id="XMLID_21_" class="st0">
			<circle id="XMLID_67_" class="st4" cx="314.5" cy="223.8" r="36.9"/>
			<path id="XMLID_68_" class="st5" d="M314.5,265.4c-22.9,0-41.6-18.7-41.6-41.6s18.7-41.6,41.6-41.6s41.6,18.7,41.6,41.6
				S337.4,265.4,314.5,265.4z M314.5,191.5c-17.8,0-32.3,14.5-32.3,32.3s14.5,32.3,32.3,32.3s32.3-14.5,32.3-32.3
				S332.3,191.5,314.5,191.5z"/>
		</g>
		<g id="XMLID_20_" class="st0">
			<path id="XMLID_63_" class="st4" d="M134.9,130.7c-12.8,10.6-5.8,10.1-17.6,16.7c-8.6,4.8-18.2,4-26.2,0.8
				c-6.3-2.6-11.5-6.7-14.4-11c-6.8-10-1.6-17.3,9.5-30.9c4.1-5,4.8-21.1,11.6-24.4c6.8-3.3,14.4-6.4,21.4-11.2
				c7.3-5,12.9-11.8,18.8-20.2c5.2-7.6,15.6-9.2,21.8-8.9c10.2,0.6,13.1-2.5,20.6-4.3C196,33.7,203,53.6,199.4,62
				c-3.4,7.9-0.8,17.6-1.8,27.1c-1.5,14.8-9.5,23.4-21.8,33.2c-6.8,5.4-14.5,6.1-21.6,6.2C146.5,128.5,139.2,127.2,134.9,130.7z"/>
			<path id="XMLID_64_" class="st5" d="M104,155.4c-4.8,0-9.7-1-14.6-3c-7-2.8-13-7.5-16.5-12.7c-9.1-13.4-0.8-23.5,9.7-36.4
				c1-1.3,2.1-5.1,3-8.2c2-6.8,4.2-14.6,10.2-17.5c1.3-0.6,2.5-1.2,3.8-1.8c5.7-2.6,11.5-5.4,16.9-9c6.8-4.6,11.9-10.9,17.5-19
				c6.1-8.8,17.8-11.3,25.9-10.9c6,0.4,8.9-0.7,12.5-2c1.9-0.7,4-1.5,6.7-2.1c7.5-1.8,14.3,0.5,19.3,6.5c5.7,6.9,7.9,17.6,4.9,24.5
				c-1.7,4-1.5,9-1.3,14.4c0.1,3.7,0.3,7.4-0.1,11.3c-1.6,16-10.2,25.8-23.6,36.3c-7.9,6.3-16.8,7.1-24.4,7.2
				c-1.8,0-3.5-0.1-5.1-0.1c-4.7-0.2-9.2-0.3-11.2,1.3h0c-5.5,4.5-6.9,6.7-8,8.4c-1.9,2.9-3.4,4.9-10.3,8.8
				C114.8,154.1,109.5,155.4,104,155.4z M158.2,46.2c-4.9,0-12.6,1.4-16.4,6.9c-5.4,7.8-11.5,15.7-20,21.5c-6,4.1-12.2,7-18.2,9.8
				c-1.3,0.6-2.5,1.2-3.8,1.8c-2.2,1.1-4,7.4-5.3,11.6c-1.3,4.5-2.5,8.7-4.7,11.5c-11.5,14.1-13.8,18.6-9.2,25.4
				c2.5,3.7,7.1,7.1,12.3,9.3c4.6,1.9,13.5,4.3,22.2-0.5c5.2-2.9,5.8-3.9,7-5.6c1.4-2.2,3.3-5.1,9.9-10.6h0
				c4.7-3.9,11.2-3.6,17.4-3.4c1.6,0.1,3.2,0.1,4.8,0.1c6.3,0,13-0.7,18.7-5.2c12-9.5,18.8-17.1,20.1-30c0.3-3.2,0.2-6.7,0.1-10
				c-0.2-6.2-0.5-12.6,2.1-18.5c1.4-3.2,0.2-10.4-3.5-14.8c-2.7-3.2-6.1-4.4-10.1-3.4c-2.1,0.5-3.9,1.1-5.7,1.8
				c-4.1,1.5-8.4,3.1-16.3,2.6C159.1,46.2,158.7,46.2,158.2,46.2z"/>
		</g>
		<g id="XMLID_19_" class="st0">
			<polygon id="XMLID_59_" class="st4" points="246.8,448 197.9,416.1 171.3,428.7 226.4,489.1 			"/>
			<path id="XMLID_60_" class="st5" d="M227.6,497.3l-63.9-70.1l34.6-16.4l54.6,35.6L227.6,497.3z M179,430.2l46.3,50.8l15.5-31.4
				l-43.3-28.2L179,430.2z"/>
		</g>
		<g id="XMLID_18_" class="st0">
			<line id="XMLID_57_" class="st4" x1="283" y1="379.7" x2="283" y2="417.4"/>
			<rect id="XMLID_58_" x="278.3" y="379.7" class="st5" width="9.3" height="37.7"/>
		</g>
		<g id="XMLID_17_" class="st0">
			<polygon id="XMLID_53_" class="st4" points="250,448 299,416.1 325.5,428.7 270.4,489.1 			"/>
			<path id="XMLID_54_" class="st5" d="M269.3,497.3l-25.3-51l54.6-35.6l34.6,16.4L269.3,497.3z M256,449.6l15.5,31.4l46.3-50.8
				l-18.5-8.8L256,449.6z"/>
		</g>
		<g id="XMLID_16_" class="st0">
			<path id="XMLID_49_" class="st7" d="M150.4,62.2c5.9,6.9,0.6,21.8-11.6,32.2s-25.2,12.6-31.1,5.7s-4.7-25.5,7.5-35.9
				S144.5,55.3,150.4,62.2z"/>
			<path id="XMLID_50_" class="st8" d="M117.3,108.8c-5.4,0-9.9-1.9-13.1-5.6c-3.9-4.5-5.4-12.1-4.1-20.4
				c1.4-8.8,5.7-16.6,12.1-22.1c14-12,33.9-10.7,41.8-1.5v0c7.7,9,2.3,26.4-12.1,38.8c-6.6,5.6-13.5,9.2-20.1,10.4
				C120.2,108.6,118.7,108.8,117.3,108.8z M135.5,61.4c-5.6,0-12,1.8-17.3,6.4c-4.7,4-7.9,10-8.9,16.5c-1,6.1,0.3,10.9,2,12.9
				c2.3,2.6,6.1,2.6,8.9,2.1c4.9-0.9,10.5-3.8,15.7-8.3c10.7-9.2,14.8-21.4,11.1-25.7C144.8,62.9,140.5,61.4,135.5,61.4z"/>
		</g>
		<g id="XMLID_15_" class="st0">
			<path id="XMLID_108_" class="st9" d="M246.6,224"/>
		</g>
		<g id="XMLID_14_" class="st0">
			<circle id="XMLID_45_" class="st4" cx="176.7" cy="221.3" r="49.5"/>
			<path id="XMLID_46_" class="st5" d="M176.7,275.5c-29.9,0-54.2-24.3-54.2-54.2s24.3-54.2,54.2-54.2s54.2,24.3,54.2,54.2
				S206.5,275.5,176.7,275.5z M176.7,176.5c-24.7,0-44.9,20.1-44.9,44.9s20.1,44.9,44.9,44.9s44.9-20.1,44.9-44.9
				S201.4,176.5,176.7,176.5z"/>
		</g>
		<g id="XMLID_13_" class="st0">
			<circle id="XMLID_41_" class="st4" cx="314.2" cy="224" r="49.5"/>
			<path id="XMLID_42_" class="st5" d="M314.2,278.2c-29.9,0-54.2-24.3-54.2-54.2s24.3-54.2,54.2-54.2c29.9,0,54.2,24.3,54.2,54.2
				S344.1,278.2,314.2,278.2z M314.2,179.2c-24.7,0-44.9,20.1-44.9,44.9s20.1,44.9,44.9,44.9s44.9-20.1,44.9-44.9
				S338.9,179.2,314.2,179.2z"/>
		</g>
		<g id="XMLID_9_" class="st0">
			<g id="XMLID_12_">
				<path id="XMLID_107_" d="M195.3,189.5l-50.4,50.4c2,3.3,4.5,6.4,7.4,8.9l52-52c-2.6-3-5.7-5.5-9.2-7.5L195.3,189.5z"/>
			</g>
			<g id="XMLID_11_">
				<path id="XMLID_106_" d="M189.6,186.6c-4-1.5-8.4-2.3-12.9-2.3c-20.3,0-36.8,16.5-36.8,36.8c0,4.5,0.8,8.9,2.3,12.9L189.6,186.6
					z"/>
			</g>
			<g id="XMLID_10_">
				<path id="XMLID_105_" d="M207.9,201.7l-50.7,50.7c5.6,3.5,12.3,5.5,19.4,5.5c20.3,0,36.8-16.5,36.8-36.8
					C213.5,214,211.5,207.4,207.9,201.7z"/>
			</g>
		</g>
		<g id="XMLID_5_" class="st0">
			<g id="XMLID_8_">
				<path id="XMLID_104_" d="M320.4,188.1c-1.9-0.3-3.9-0.5-5.9-0.5c-20.3,0-36.8,16.5-36.8,36.8c0,2,0.2,4,0.5,5.9L320.4,188.1z"/>
			</g>
			<g id="XMLID_7_">
				<path id="XMLID_103_" d="M306,260.3c2.7,0.7,5.6,1,8.5,1c20.3,0,36.8-16.5,36.8-36.8c0-2.6-0.3-5.1-0.8-7.6L306,260.3z"/>
			</g>
			<g id="XMLID_6_">
				<path id="XMLID_95_" d="M348.5,210.4c-3.4-8.1-9.6-14.7-17.3-18.7l-49.5,49.5c3.8,7.5,10.1,13.5,17.8,16.9L348.5,210.4z"/>
			</g>
		</g>
		<g id="XMLID_4_" class="st0">
			<line id="XMLID_39_" class="st4" x1="228.7" y1="224.5" x2="264.7" y2="224.5"/>
			<rect id="XMLID_40_" x="228.7" y="219.8" class="st5" width="36" height="9.3"/>
		</g>
		<g id="XMLID_3_" class="st0">
			<line id="XMLID_37_" class="st4" x1="124.9" y1="223.7" x2="104.3" y2="223.7"/>
			<rect id="XMLID_38_" x="104.3" y="219.1" class="st5" width="20.6" height="9.3"/>
		</g>
		<rect id="XMLID_1_" x="0" y="0" class="st10" width="500" height="500"/>
	</g>
</g>
</svg>
