<?xml version="1.0" encoding="utf-8"?>
<!-- Generator: Adobe Illustrator 19.0.0, SVG Export Plug-In . SVG Version: 6.00 Build 0)  -->
<svg version="1.1" id="Layer_1" xmlns="http://www.w3.org/2000/svg" xmlns:xlink="http://www.w3.org/1999/xlink" x="0px" y="0px"
	 viewBox="0 0 200 200" style="enable-background:new 0 0 200 200;" xml:space="preserve">
<style type="text/css">
	.st0{fill:#FFFFFF;stroke:#231F20;stroke-width:7;stroke-miterlimit:10;}
	.st1{fill:#F7BE2D;stroke:#D77B28;stroke-width:7;stroke-miterlimit:10;}
</style>
<path id="XMLID_3_" class="st0" d="M96.5,152.8c-19.2,15.8-8.6,15.2-26.3,25c-12.8,7.1-27.3,6-39.2,1.1c-9.4-3.8-17.2-10-21.5-16.4
	c-10.1-14.9-2.4-25.9,14.2-46.2c6.1-7.5,7.2-31.6,17.4-36.4c10.2-4.9,21.5-9.6,32-16.7c11-7.4,19.3-17.6,28.1-30.3
	c7.8-11.3,23.3-13.8,32.7-13.2c15.2,0.9,19.6-3.7,30.8-6.4c23.4-5.5,33.7,24.3,28.3,36.8c-5.1,11.8-1.2,26.3-2.7,40.6
	c-2.3,22.1-14.2,35-32.6,49.6c-10.1,8-21.6,9.2-32.3,9.2C113.8,149.5,102.8,147.6,96.5,152.8z"/>
<path id="XMLID_2_" class="st1" d="M119.6,50.4c8.8,10.3,0.9,32.6-17.3,48.2s-37.7,18.8-46.5,8.5s-7.1-38.1,11.2-53.7
	S110.8,40.1,119.6,50.4z"/>
</svg>
